<svg width="251" height="32" viewBox="0 0 251 32" fill="none" xmlns="http://www.w3.org/2000/svg">
<path d="M3.40344 5.52C2.65677 5.52 2.01677 5.28 1.48344 4.8C0.950104 4.32 0.683438 3.66666 0.683438 2.84C0.683438 2.01333 0.950104 1.36 1.48344 0.879999C2.01677 0.399999 2.65677 0.159999 3.40344 0.159999C4.20344 0.159999 4.85677 0.399999 5.36344 0.879999C5.8701 1.36 6.12344 2.01333 6.12344 2.84C6.12344 3.66666 5.8701 4.32 5.36344 4.8C4.85677 5.28 4.20344 5.52 3.40344 5.52ZM1.16344 31V16.04C1.16344 15.5067 1.1501 14.8267 1.12344 14C1.12344 13.1467 1.09677 12.3067 1.04344 11.48C1.01677 10.6533 0.950104 10 0.843438 9.52L0.923438 9.2H5.64344V31H1.16344ZM12.9603 31V17.28C12.9603 16.7467 12.947 16.0667 12.9203 15.24C12.9203 14.3867 12.8936 13.5467 12.8403 12.72C12.8136 11.8933 12.747 11.24 12.6403 10.76L12.7203 10.44C13.467 10.1467 14.3736 9.86667 15.4403 9.6C16.5336 9.33333 17.6403 9.12 18.7603 8.96C19.907 8.8 20.9336 8.72 21.8403 8.72C23.2003 8.72 24.467 8.86667 25.6403 9.16C26.8136 9.42667 27.867 9.92 28.8003 10.64C29.7336 11.3333 30.4536 12.3067 30.9603 13.56C31.4936 14.7867 31.7603 16.36 31.7603 18.28V31H27.2803V18.56C27.2803 16.9333 27.0403 15.68 26.5603 14.8C26.107 13.92 25.427 13.32 24.5203 13C23.6403 12.6533 22.587 12.48 21.3603 12.48C20.5336 12.48 19.667 12.5733 18.7603 12.76C17.8536 12.9467 17.0536 13.16 16.3603 13.4L17.0803 12.16C17.2136 12.56 17.307 13.0667 17.3603 13.68C17.4136 14.2933 17.4403 14.96 17.4403 15.68V31H12.9603ZM37.3378 26.16H37.6578C38.6178 26.5867 39.7245 26.9467 40.9778 27.24C42.2311 27.5067 43.4711 27.64 44.6978 27.64C45.1245 27.64 45.6178 27.6267 46.1778 27.6C46.7645 27.5467 47.3511 27.44 47.9378 27.28C48.5245 27.0933 49.0045 26.8 49.3778 26.4C49.7778 25.9733 49.9778 25.4 49.9778 24.68C49.9778 23.8 49.6178 23.1867 48.8978 22.84C48.2045 22.4667 47.1911 22.1733 45.8578 21.96L43.9778 21.64C41.7645 21.2667 40.0978 20.6267 38.9778 19.72C37.8578 18.7867 37.2978 17.4533 37.2978 15.72C37.2978 14.4933 37.6311 13.36 38.2978 12.32C38.9645 11.28 40.0178 10.4533 41.4578 9.84C42.8978 9.2 44.8178 8.88 47.2178 8.88C48.2845 8.88 49.3111 8.96 50.2978 9.12C51.2845 9.28 52.1378 9.48 52.8578 9.72V13.56H52.5378C51.6045 13.2133 50.7111 12.96 49.8578 12.8C49.0045 12.64 48.0711 12.56 47.0578 12.56C45.3511 12.56 44.0178 12.7867 43.0578 13.24C42.0978 13.6933 41.6178 14.4667 41.6178 15.56C41.6178 16.3867 41.9645 16.9867 42.6578 17.36C43.3778 17.7067 44.3778 17.9867 45.6578 18.2L47.5378 18.52C48.7911 18.7067 49.9245 19.04 50.9378 19.52C51.9511 20 52.7645 20.6533 53.3778 21.48C53.9911 22.3067 54.2978 23.3467 54.2978 24.6C54.2978 26.8133 53.4845 28.4933 51.8578 29.64C50.2578 30.76 47.8045 31.32 44.4978 31.32C43.1645 31.32 41.8845 31.2133 40.6578 31C39.4311 30.7867 38.3245 30.52 37.3378 30.2V26.16ZM67.4206 31.32C65.554 31.32 64.0206 31.0267 62.8206 30.44C61.6206 29.8533 60.7273 29.0133 60.1406 27.92C59.554 26.8 59.2606 25.44 59.2606 23.84V3.4H63.7406V23.44C63.7406 24.9067 64.0606 25.96 64.7006 26.6C65.3673 27.24 66.4073 27.56 67.8206 27.56C68.354 27.56 68.874 27.5067 69.3806 27.4C69.914 27.2667 70.3673 27.12 70.7406 26.96H71.1006V30.64C70.6473 30.8267 70.114 30.9867 69.5006 31.12C68.8873 31.2533 68.194 31.32 67.4206 31.32ZM55.8606 12.96V9.2H69.8606V12.96H55.8606ZM75.5775 31V17.16C75.5775 16.6267 75.5642 15.9333 75.5375 15.08C75.5375 14.2267 75.5108 13.4 75.4575 12.6C75.4308 11.7733 75.3642 11.12 75.2575 10.64L75.3375 10.32C76.0575 10.0533 76.9242 9.82667 77.9375 9.64C78.9508 9.42666 79.9908 9.26667 81.0575 9.16C82.1242 9.02667 83.0842 8.96 83.9375 8.96C84.5242 8.96 85.0442 8.97333 85.4975 9C85.9775 9.02667 86.4042 9.08 86.7775 9.16V12.92H86.4575C86.0842 12.84 85.6442 12.7867 85.1375 12.76C84.6575 12.7333 84.2042 12.72 83.7775 12.72C82.9508 12.72 82.0975 12.7867 81.2175 12.92C80.3375 13.0533 79.5775 13.2 78.9375 13.36L79.7375 12.24C79.9508 13.04 80.0575 14.1867 80.0575 15.68V31H75.5775ZM101.51 31.48C100.124 31.48 98.8036 31.3333 97.5503 31.04C96.3236 30.7733 95.2436 30.28 94.3103 29.56C93.377 28.84 92.6436 27.8667 92.1103 26.64C91.577 25.3867 91.3103 23.8133 91.3103 21.92V16.04C91.3103 15.5067 91.297 14.8267 91.2703 14C91.2436 13.1467 91.2036 12.3067 91.1503 11.48C91.1236 10.6533 91.057 10 90.9503 9.52L91.0303 9.2H95.7903V21.6C95.7903 23.2533 96.0303 24.52 96.5103 25.4C96.9903 26.28 97.697 26.8933 98.6303 27.24C99.5636 27.56 100.67 27.72 101.95 27.72C102.777 27.72 103.604 27.64 104.43 27.48C105.284 27.32 106.03 27.16 106.67 27L105.91 28.08C105.804 27.7067 105.724 27.2267 105.67 26.64C105.644 26.0533 105.63 25.4267 105.63 24.76V16.04C105.63 15.5067 105.617 14.8267 105.59 14C105.564 13.1467 105.524 12.3067 105.47 11.48C105.444 10.6533 105.377 10 105.27 9.52L105.35 9.2H110.11V23.04C110.11 23.5733 110.11 24.2667 110.11 25.12C110.137 25.9467 110.164 26.7733 110.19 27.6C110.244 28.4267 110.324 29.08 110.43 29.56L110.35 29.88C109.604 30.1733 108.697 30.44 107.63 30.68C106.564 30.92 105.484 31.1067 104.39 31.24C103.297 31.4 102.337 31.48 101.51 31.48ZM117.374 31V17.28C117.374 16.7467 117.361 16.0667 117.334 15.24C117.334 14.3867 117.308 13.5467 117.254 12.72C117.228 11.8933 117.161 11.24 117.054 10.76L117.134 10.44C117.881 10.1467 118.774 9.86667 119.814 9.6C120.881 9.33333 121.974 9.12 123.094 8.96C124.241 8.8 125.294 8.72 126.254 8.72C127.454 8.72 128.614 8.86667 129.734 9.16C130.854 9.42667 131.854 9.92 132.734 10.64C133.614 11.3333 134.308 12.3067 134.814 13.56C135.348 14.7867 135.614 16.36 135.614 18.28V31H131.134V18.56C131.134 16.9333 130.908 15.68 130.454 14.8C130.001 13.92 129.361 13.32 128.534 13C127.734 12.6533 126.814 12.48 125.774 12.48C124.948 12.48 124.081 12.5733 123.174 12.76C122.268 12.9467 121.468 13.16 120.774 13.4L121.494 12.16C121.628 12.56 121.721 13.0667 121.774 13.68C121.828 14.2933 121.854 14.96 121.854 15.68V31H117.374ZM144.494 31V18.56C144.494 16.9333 144.281 15.68 143.854 14.8C143.428 13.92 142.788 13.32 141.934 13C141.081 12.6533 140.041 12.48 138.814 12.48C138.094 12.48 137.361 12.56 136.614 12.72C135.868 12.88 135.081 13.12 134.254 13.44L131.694 10.44C132.974 9.93333 134.281 9.52 135.614 9.2C136.948 8.88 138.228 8.72 139.454 8.72C140.761 8.72 141.988 8.85333 143.134 9.12C144.281 9.38667 145.294 9.88 146.174 10.6C147.054 11.2933 147.734 12.2667 148.214 13.52C148.721 14.7467 148.974 16.3333 148.974 18.28V31H144.494ZM166.686 31.36C164.686 31.36 162.913 31.12 161.366 30.64C159.846 30.16 158.566 29.4533 157.526 28.52C156.486 27.56 155.7 26.3733 155.166 24.96C154.66 23.5467 154.406 21.9067 154.406 20.04C154.406 17.72 154.833 15.72 155.686 14.04C156.54 12.3333 157.74 11.0267 159.286 10.12C160.833 9.18667 162.66 8.72 164.766 8.72C167.14 8.72 169.06 9.21333 170.526 10.2C171.993 11.16 173.046 12.52 173.686 14.28C174.353 16.0133 174.633 18.0267 174.526 20.32L174.486 21.52H157.406V18.24H170.006V17.92C170.006 16.08 169.566 14.6933 168.686 13.76C167.806 12.8 166.486 12.32 164.726 12.32C163.686 12.32 162.726 12.5467 161.846 13C160.966 13.4533 160.26 14.2267 159.726 15.32C159.22 16.3867 158.966 17.84 158.966 19.68V20.2C158.966 22.0933 159.3 23.5867 159.966 24.68C160.66 25.7467 161.606 26.5067 162.806 26.96C164.033 27.4133 165.42 27.64 166.966 27.64C168.3 27.64 169.446 27.52 170.406 27.28C171.393 27.0133 172.166 26.72 172.726 26.4H173.086V30.2C172.393 30.52 171.513 30.7867 170.446 31C169.406 31.24 168.153 31.36 166.686 31.36ZM180.187 31V17.28C180.187 16.7467 180.174 16.0667 180.147 15.24C180.147 14.3867 180.12 13.5467 180.067 12.72C180.04 11.8933 179.974 11.24 179.867 10.76L179.947 10.44C180.694 10.1467 181.6 9.86667 182.667 9.6C183.76 9.33333 184.867 9.12 185.987 8.96C187.134 8.8 188.16 8.72 189.067 8.72C190.427 8.72 191.694 8.86667 192.867 9.16C194.04 9.42667 195.094 9.92 196.027 10.64C196.96 11.3333 197.68 12.3067 198.187 13.56C198.72 14.7867 198.987 16.36 198.987 18.28V31H194.507V18.56C194.507 16.9333 194.267 15.68 193.787 14.8C193.334 13.92 192.654 13.32 191.747 13C190.867 12.6533 189.814 12.48 188.587 12.48C187.76 12.48 186.894 12.5733 185.987 12.76C185.08 12.9467 184.28 13.16 183.587 13.4L184.307 12.16C184.44 12.56 184.534 13.0667 184.587 13.68C184.64 14.2933 184.667 14.96 184.667 15.68V31H180.187ZM214.218 31.32C212.351 31.32 210.818 31.0267 209.618 30.44C208.418 29.8533 207.524 29.0133 206.938 27.92C206.351 26.8 206.058 25.44 206.058 23.84V3.4H210.538V23.44C210.538 24.9067 210.858 25.96 211.498 26.6C212.164 27.24 213.204 27.56 214.618 27.56C215.151 27.56 215.671 27.5067 216.178 27.4C216.711 27.2667 217.164 27.12 217.538 26.96H217.898V30.64C217.444 30.8267 216.911 30.9867 216.298 31.12C215.684 31.2533 214.991 31.32 214.218 31.32ZM202.658 12.96V9.2H216.658V12.96H202.658ZM230.57 31.48C227.37 31.48 224.956 30.92 223.33 29.8C221.703 28.68 220.89 26.9333 220.89 24.56C220.89 23.0133 221.276 21.7333 222.05 20.72C222.823 19.7067 223.916 18.9467 225.33 18.44C226.743 17.9333 228.396 17.68 230.29 17.68C231.65 17.68 232.796 17.8 233.73 18.04C234.663 18.2533 235.49 18.4667 236.21 18.68V21.84C235.57 21.6267 234.756 21.44 233.77 21.28C232.81 21.0933 231.903 21 231.05 21C229.076 21 227.596 21.2667 226.61 21.8C225.65 22.3067 225.17 23.2267 225.17 24.56C225.17 25.8133 225.636 26.72 226.57 27.28C227.503 27.8133 228.85 28.08 230.61 28.08C231.623 28.08 232.596 28 233.53 27.84C234.463 27.6533 235.33 27.3867 236.13 27.04L235.37 28.36C235.29 28.0933 235.223 27.8133 235.17 27.52C235.116 27.2267 235.063 26.9333 235.01 26.64C234.983 26.32 234.956 25.9733 234.93 25.6C234.93 25.2267 234.93 24.8 234.93 24.32V17.84C234.93 16.2933 234.703 15.1333 234.25 14.36C233.823 13.56 233.17 13.04 232.29 12.8C231.41 12.5333 230.303 12.4 228.97 12.4C227.903 12.4 226.836 12.5333 225.77 12.8C224.703 13.04 223.85 13.3067 223.21 13.6H222.85V9.84C223.81 9.46666 224.876 9.18667 226.05 9C227.25 8.81333 228.41 8.72 229.53 8.72C230.943 8.72 232.236 8.84 233.41 9.08C234.61 9.32 235.65 9.77333 236.53 10.44C237.436 11.08 238.13 12 238.61 13.2C239.116 14.3733 239.37 15.92 239.37 17.84V23C239.37 23.5333 239.37 24.2267 239.37 25.08C239.396 25.9333 239.436 26.7733 239.49 27.6C239.543 28.4 239.623 29.04 239.73 29.52L239.61 29.84C238.73 30.16 237.756 30.4533 236.69 30.72C235.623 30.96 234.556 31.1467 233.49 31.28C232.423 31.4133 231.45 31.48 230.57 31.48ZM246.32 31V7.44C246.32 6.90667 246.306 6.21333 246.28 5.36C246.28 4.50667 246.253 3.68 246.2 2.88C246.173 2.05333 246.106 1.4 246 0.919999L246.08 0.599998H250.8V31H246.32Z" fill="white"/>
</svg>
